<svg width="15" height="15" viewBox="0 0 15 15" fill="none" xmlns="http://www.w3.org/2000/svg">
<path d="M13.6225 0.236668L7.5 6.36069L1.37748 0.236668C1.062 -0.0788894 0.552091 -0.0788894 0.23661 0.236668C-0.0788701 0.552226 -0.0788701 1.06226 0.23661 1.37781L6.35913 7.50183L0.23661 13.6222C-0.0788701 13.9377 -0.0788701 14.4478 0.23661 14.7633C0.552091 15.0789 1.062 15.0789 1.37748 14.7633L7.5 8.63931L13.6225 14.7633C13.938 15.0789 14.4479 15.0789 14.7634 14.7633C15.0789 14.4478 15.0789 13.9377 14.7634 13.6222L8.64087 7.50183L14.7634 1.37781C15.0789 1.06226 15.0789 0.552226 14.7634 0.236668C14.4479 -0.0788894 13.938 -0.0788894 13.6225 0.236668Z" fill="#ACC516"/>
</svg>
