<svg width="100" height="100" viewBox="0 0 100 100" fill="none" xmlns="http://www.w3.org/2000/svg">
<path d="M94 30.6582C94 55.6458 93.1021 94 71.2698 94C49.4375 94 9.00872 78.2679 9.00872 53.2803C9.00872 28.2926 7.93013 9.1672 29.7624 9.1672C51.5947 9.1672 94 5.67052 94 30.6582Z" fill="url(#paint0_linear)"/>
<path d="M89.5 26.6582C89.5 39.1591 89.2736 54.9385 86.335 67.5863C84.8655 73.9109 82.7281 79.4038 79.6398 83.3065C76.5669 87.1896 72.5547 89.5 67.2698 89.5C56.4473 89.5 40.9642 85.5931 28.193 78.5723C15.3959 71.5374 5.50872 61.4864 5.50872 49.2803C5.50872 48.1407 5.50649 47.0141 5.50429 45.9017C5.49439 40.9069 5.48506 36.1967 5.68081 31.8685C5.92018 26.5757 6.46528 21.893 7.67588 18.0019C8.88455 14.1171 10.7474 11.0506 13.6054 8.94878C16.4642 6.84636 20.3761 5.6672 25.7624 5.6672C28.0198 5.6672 30.4904 5.63021 33.1067 5.59105C43.1931 5.44005 55.4437 5.25666 65.9851 7.03535C72.6197 8.15482 78.5121 10.0431 82.7361 13.1608C86.9341 16.2594 89.5 20.581 89.5 26.6582Z" stroke="url(#paint1_linear)"/>
<defs>
<linearGradient id="paint0_linear" x1="9" y1="9" x2="93.4413" y2="13.2836" gradientUnits="userSpaceOnUse">
<stop stop-color="#ACC516"/>
<stop offset="1" stop-color="#3AA334"/>
</linearGradient>
<linearGradient id="paint1_linear" x1="5" y1="5" x2="89.4413" y2="9.28358" gradientUnits="userSpaceOnUse">
<stop stop-color="#ACC516"/>
<stop offset="1" stop-color="#3AA334"/>
</linearGradient>
</defs>
</svg>
