<svg width="143" height="143" viewBox="0 0 143 143" fill="none" xmlns="http://www.w3.org/2000/svg">
<path d="M142.5 36.4367C142.5 57.4628 142.12 84.0476 137.166 105.369C134.689 116.031 131.079 125.328 125.838 131.951C120.613 138.554 113.769 142.5 104.76 142.5C86.4886 142.5 60.3845 135.909 38.8545 124.074C17.2985 112.224 0.514673 95.2263 0.514673 74.495C0.514673 72.5797 0.510918 70.6857 0.507209 68.815C0.490549 60.4116 0.474819 52.4773 0.804534 45.1869C1.20768 36.2729 2.12632 28.3604 4.17601 21.7724C6.22376 15.1907 9.3912 9.96004 14.2751 6.36838C19.16 2.77609 25.8191 0.781286 34.9297 0.781286C38.7174 0.781286 42.8664 0.719125 47.2625 0.653261C64.233 0.399007 84.8866 0.089571 102.655 3.08775C113.838 4.97464 123.813 8.16314 130.982 13.4549C138.126 18.7275 142.5 26.0969 142.5 36.4367Z" stroke="url(#paint0_linear)"/>
<defs>
<linearGradient id="paint0_linear" x1="0" y1="0" x2="142.06" y2="7.2065" gradientUnits="userSpaceOnUse">
<stop stop-color="#ACC516"/>
<stop offset="1" stop-color="#3AA334"/>
</linearGradient>
</defs>
</svg>
