<svg width="22" height="22" viewBox="0 0 22 22" fill="none" xmlns="http://www.w3.org/2000/svg">
<path d="M11 2.11111C15.9111 2.11111 19.8889 6.08889 19.8889 11C19.8889 13.3333 19 15.5333 17.3556 17.2C15.7333 18.8667 13.5778 19.8222 11.2444 19.8889H2.08889V10.9333C2.15556 6.06667 6.13333 2.11111 11 2.11111ZM11 1C5.51111 1 1.04444 5.42222 1 10.9111V21H11.2667C16.6667 20.8444 21 16.4222 21 11C21 5.46667 16.5333 1 11 1Z" fill="#3AA334"/>
<path d="M11.9778 15H13.1556V16.2667H8.82223V15H10V9.9111H8.82223V8.64443H11.9778V15ZM11.9111 5.53332V7.35555H9.75556V5.53332H11.9111Z" fill="#3AA334"/>
<path d="M11 2.11111C15.9111 2.11111 19.8889 6.08889 19.8889 11C19.8889 13.3333 19 15.5333 17.3556 17.2C15.7333 18.8667 13.5778 19.8222 11.2444 19.8889H2.08889V10.9333C2.15556 6.06667 6.13333 2.11111 11 2.11111ZM11 1C5.51111 1 1.04444 5.42222 1 10.9111V21H11.2667C16.6667 20.8444 21 16.4222 21 11C21 5.46667 16.5333 1 11 1Z" stroke="#3AA334" stroke-width="0.5"/>
<path d="M11.9778 15H13.1556V16.2667H8.82223V15H10V9.9111H8.82223V8.64443H11.9778V15ZM11.9111 5.53332V7.35555H9.75556V5.53332H11.9111Z" stroke="#3AA334" stroke-width="0.5"/>
</svg>
