<svg width="140" height="72" viewBox="0 0 140 72" fill="none" xmlns="http://www.w3.org/2000/svg">
<path d="M40.8845 57.4638C40.7367 58.1037 41.1488 58.7281 41.802 58.8746C43.4116 59.2292 46.1953 59.4297 46.7629 56.8702C47.5716 53.2161 55.5338 16.3048 58.0454 8.41066C56.4203 25.1472 54.6552 50.5796 55.2461 51.8979C55.8371 53.2161 57.3845 53.7943 58.0454 53.7943C58.7063 53.7943 65.0513 28.5084 65.0513 28.5084C65.0513 28.5084 68.146 56.3537 68.5892 56.9396C69.0324 57.5255 70.5098 59.0828 71.1707 59.0828C71.645 59.0828 74.0866 49.3615 75.4629 43.7416C76.2871 45.7614 77.9044 47.149 80.6804 47.149C87.5385 47.149 87.834 32.9719 86.7221 31.9466C85.6179 30.9213 83.1142 31.2143 81.7068 32.9719C80.3071 34.7296 82.2977 35.6778 82.2977 35.6778C82.2977 35.6778 82.6632 44.3737 80.3771 44.3737C78.4565 44.3737 78.4565 35.0149 82.15 30.3431C82.15 30.3431 81.2635 28.7319 79.203 28.7319C77.1347 28.7319 74.4754 35.2693 74.7942 40.5577L70.9919 51.1115C70.9452 51.2503 70.743 51.2272 70.7275 51.0807C70.3076 47.2801 68.0216 26.319 67.5473 20.6142C64.818 20.6142 63.1229 22.2254 62.6797 23.7595C62.3142 25.0238 59.2117 37.8518 58.1154 42.3694C58.0843 42.5081 57.8743 42.4773 57.8821 42.3308C58.5741 34.7605 61.4511 2.89863 61.1245 2.63652C60.7591 2.34358 59.5772 2.7059 58.9163 1.90415C58.2631 1.0947 56.638 0 55.8293 0C53.8621 0 42.6807 49.4772 40.8845 57.4638Z" fill="url(#paint0_radial)"/>
<path d="M89.6613 15.2718C88.7748 16.22 90.2522 15.6341 90.1745 17.0988C90.1045 18.5636 88.4094 35.1536 90.0267 59.9308C90.1745 61.8349 93.4169 61.9737 93.7901 61.9737C94.1556 61.9737 94.2334 41.2361 102.149 21.8323C102.196 21.7243 102.351 21.7629 102.343 21.8785C100.944 36.0556 103.385 50.4331 104.186 51.2272C104.995 52.0289 107.654 52.6919 108.237 51.736C108.533 51.258 110.034 47.7812 111.456 44.4354C112.079 47.6039 113.774 49.9089 116.417 49.9089C123.05 49.9089 122.755 41.213 121.65 35.4389C126.098 31.8079 130.546 30.3971 133.042 29.8575C131.448 45.3682 130.071 71.3557 130.351 71.8414C130.647 72.3502 133.819 71.479 134.628 71.402C135.437 71.3326 134.037 70.1608 133.967 68.8425C134.636 50.8648 137.373 31.1449 137.87 27.6604C137.917 27.3443 137.692 27.0668 137.373 27.0359C136.735 26.9742 135.584 26.9511 134.099 27.2749C133.625 27.3828 133.267 27.776 133.221 28.254C133.197 28.4698 133.174 28.6857 133.151 28.9015C127.949 29.7727 121.604 31.9775 118.486 33.7274C119.497 32.1239 120.538 31.0061 121.16 30.4125C121.472 30.1119 121.456 29.5953 121.114 29.3255C120.189 28.5777 118.338 27.5447 116.417 29.0942C113.346 31.7693 111.69 35.8783 111.285 39.7406L107.747 46.5169C107.639 46.725 107.32 46.6788 107.281 46.4475C106.791 43.8727 105.244 34.4521 106.239 23.0272C106.682 19.0801 105.135 18.2783 103.587 18.2783C99.4586 18.2783 93.8601 36.4025 93.8601 36.4025C93.588 36.1404 94.1167 20.9842 95.3375 15.2641C95.4075 14.9249 95.1587 14.6088 94.8088 14.6011C94.5366 14.5934 94.1867 14.5857 93.8057 14.5857C92.2972 14.578 90.2056 14.6859 89.6613 15.2718ZM115.616 43.5566C115.616 40.9046 116.176 38.6073 116.962 36.6877C118.851 43.5797 117.77 47.6578 116.752 47.6578C116.169 47.6655 115.616 46.3704 115.616 43.5566Z" fill="url(#paint1_radial)"/>
<path d="M134.48 15.1253C134.605 15.3103 133.081 21.0459 133.446 21.9941C133.812 22.9424 136.323 24.4071 138.609 24.4071C139.348 24.4071 137.575 21.4082 138.609 15.1253C139.643 8.84237 142.124 5.77414 136.09 5.77414C136.098 9.21241 133.081 13.013 134.48 15.1253Z" fill="url(#paint2_radial)"/>
<path d="M0.443213 42.9321H4.36993C5.06196 42.9321 5.68402 42.8319 6.25164 42.6238C6.81926 42.4233 7.30913 42.1227 7.72124 41.7372C8.13335 41.3518 8.45215 40.8815 8.68542 40.3265C8.91869 39.7714 9.04311 39.147 9.05088 38.4531C9.05866 37.9829 9.06643 37.5666 9.06643 37.2043V37.0963C9.06643 36.734 9.05866 36.3177 9.05088 35.8474C9.04311 35.1536 8.91869 34.5292 8.67765 33.9741C8.4366 33.4191 8.11003 32.9488 7.68236 32.5634C7.26248 32.1779 6.75706 31.885 6.17388 31.6768C5.59071 31.4687 4.9531 31.3684 4.26107 31.3684H0.450989C0.326578 31.3684 0.225494 31.4147 0.132186 31.4995C0.046654 31.5843 0 31.6922 0 31.8156V42.4927C0 42.6161 0.046654 42.7163 0.132186 42.8088C0.217719 42.8859 0.326578 42.9321 0.443213 42.9321ZM1.58624 32.8486H4.19886C4.79759 32.8486 5.30301 32.9334 5.71512 33.103C6.12723 33.2726 6.46158 33.5039 6.71818 33.7891C6.97478 34.0743 7.16139 34.4058 7.27803 34.7759C7.39466 35.1459 7.45687 35.5237 7.47242 35.9245C7.47242 36.1789 7.47242 36.4025 7.4802 36.5952C7.48797 36.788 7.48797 36.973 7.48797 37.158C7.48797 37.343 7.48797 37.528 7.4802 37.7208C7.47242 37.9135 7.47242 38.1293 7.47242 38.376C7.46464 38.7692 7.40244 39.1547 7.29358 39.5247C7.18472 39.8947 7.01366 40.2185 6.77261 40.5115C6.53156 40.7967 6.20499 41.028 5.80065 41.1976C5.39632 41.3672 4.8909 41.452 4.29217 41.452H1.58624V32.8486Z" fill="url(#paint3_radial)"/>
<path d="M11.9123 42.9321H18.6616C18.7782 42.9321 18.8871 42.8859 18.9726 42.8011C19.0582 42.7163 19.1048 42.6084 19.1048 42.485V41.8914C19.1048 41.7681 19.0582 41.6678 18.9726 41.5753C18.8871 41.4905 18.7782 41.4443 18.6538 41.4443H13.0554V37.821H18.1562C18.2806 37.821 18.3817 37.7747 18.475 37.6899C18.5605 37.6051 18.6072 37.4972 18.6072 37.3816V36.788C18.6072 36.6646 18.5605 36.5644 18.475 36.4719C18.3895 36.3871 18.2806 36.3408 18.1562 36.3408H13.0554V32.8563H18.5216C18.6461 32.8563 18.7471 32.8101 18.8405 32.7253C18.926 32.6404 18.9726 32.5325 18.9726 32.4092V31.8156C18.9726 31.6922 18.926 31.592 18.8405 31.4995C18.7549 31.4147 18.6461 31.3684 18.5216 31.3684H11.9201C11.7957 31.3684 11.6946 31.4147 11.6013 31.4995C11.5158 31.5843 11.4691 31.6922 11.4691 31.8079V42.5004C11.4691 42.6161 11.5158 42.724 11.6013 42.8088C11.6868 42.8859 11.7957 42.9321 11.9123 42.9321Z" fill="url(#paint4_radial)"/>
<path d="M24.8433 42.9321H25.5275C25.7452 42.9321 25.9241 42.8705 26.0718 42.7548C26.2196 42.6315 26.3284 42.4773 26.3984 42.2769L29.9985 31.9004C30.0219 31.8464 30.0296 31.7924 30.0296 31.7385C30.0296 31.6383 29.9908 31.5535 29.9208 31.4841C29.8508 31.4147 29.7653 31.3762 29.6642 31.3762H29.0499C28.8244 31.3762 28.6689 31.4224 28.5834 31.5149C28.4978 31.6074 28.4356 31.6999 28.3968 31.7847L25.1776 41.2901L21.9585 31.7847C21.9274 31.6999 21.8652 31.6074 21.7719 31.5149C21.6863 31.4224 21.5308 31.3762 21.3053 31.3762H20.6911C20.59 31.3762 20.5044 31.4147 20.4345 31.4841C20.3645 31.5535 20.3256 31.6383 20.3256 31.7385V31.7539C20.3256 31.8079 20.3334 31.8618 20.3567 31.9158L23.9724 42.2923C24.0424 42.4927 24.1435 42.6469 24.2912 42.7702C24.4467 42.8705 24.6255 42.9321 24.8433 42.9321Z" fill="url(#paint5_radial)"/>
<path d="M30.434 42.9321H31.0638C31.2815 42.9321 31.4293 42.8859 31.5226 42.7934C31.6081 42.7009 31.6703 42.6084 31.7014 42.5236L32.5645 40.3265H38.3496L39.2127 42.5236C39.2438 42.6084 39.306 42.7009 39.3993 42.7934C39.4849 42.8859 39.6404 42.9321 39.8581 42.9321H40.4879C40.589 42.9321 40.6668 42.8936 40.7445 42.8242C40.8145 42.7548 40.8534 42.67 40.8534 42.5698C40.8534 42.5158 40.83 42.4388 40.7912 42.3385L36.7245 31.9081C36.6701 31.7847 36.5845 31.6691 36.4757 31.5458C36.3668 31.4224 36.1958 31.3607 35.978 31.3607H34.975C34.7572 31.3607 34.5862 31.4224 34.4773 31.5458C34.3685 31.6691 34.2829 31.7847 34.2285 31.9081L30.1463 42.3385C30.0996 42.4388 30.0841 42.5081 30.0841 42.5698V42.5775C30.0841 42.6777 30.1229 42.7548 30.1929 42.8319C30.2474 42.8936 30.3329 42.9321 30.434 42.9321ZM35.4726 32.9334L37.7742 38.8309H33.1555L35.4726 32.9334Z" fill="url(#paint6_radial)"/>
<defs>
<radialGradient id="paint0_radial" cx="0" cy="0" r="1" gradientUnits="userSpaceOnUse" gradientTransform="translate(160.167 37.171) rotate(180) scale(159.457 158.093)">
<stop stop-color="#009245"/>
<stop offset="0.5216" stop-color="#7FB822"/>
<stop offset="1" stop-color="#FDDE00"/>
</radialGradient>
<radialGradient id="paint1_radial" cx="0" cy="0" r="1" gradientUnits="userSpaceOnUse" gradientTransform="translate(160.167 37.171) rotate(180) scale(159.457 158.093)">
<stop stop-color="#009245"/>
<stop offset="0.5216" stop-color="#7FB822"/>
<stop offset="1" stop-color="#FDDE00"/>
</radialGradient>
<radialGradient id="paint2_radial" cx="0" cy="0" r="1" gradientUnits="userSpaceOnUse" gradientTransform="translate(160.167 37.171) rotate(180) scale(159.457 158.093)">
<stop stop-color="#009245"/>
<stop offset="0.5216" stop-color="#7FB822"/>
<stop offset="1" stop-color="#FDDE00"/>
</radialGradient>
<radialGradient id="paint3_radial" cx="0" cy="0" r="1" gradientUnits="userSpaceOnUse" gradientTransform="translate(160.167 37.171) rotate(180) scale(159.457 158.093)">
<stop stop-color="#009245"/>
<stop offset="0.5216" stop-color="#7FB822"/>
<stop offset="1" stop-color="#FDDE00"/>
</radialGradient>
<radialGradient id="paint4_radial" cx="0" cy="0" r="1" gradientUnits="userSpaceOnUse" gradientTransform="translate(160.167 37.171) rotate(180) scale(159.457 158.093)">
<stop stop-color="#009245"/>
<stop offset="0.5216" stop-color="#7FB822"/>
<stop offset="1" stop-color="#FDDE00"/>
</radialGradient>
<radialGradient id="paint5_radial" cx="0" cy="0" r="1" gradientUnits="userSpaceOnUse" gradientTransform="translate(160.167 37.171) rotate(180) scale(159.457 158.093)">
<stop stop-color="#009245"/>
<stop offset="0.5216" stop-color="#7FB822"/>
<stop offset="1" stop-color="#FDDE00"/>
</radialGradient>
<radialGradient id="paint6_radial" cx="0" cy="0" r="1" gradientUnits="userSpaceOnUse" gradientTransform="translate(160.167 37.171) rotate(180) scale(159.457 158.093)">
<stop stop-color="#009245"/>
<stop offset="0.5216" stop-color="#7FB822"/>
<stop offset="1" stop-color="#FDDE00"/>
</radialGradient>
</defs>
</svg>
