<svg width="22" height="22" viewBox="0 0 22 22" fill="none" xmlns="http://www.w3.org/2000/svg">
<path d="M12.5253 1C7.8485 1 4.05051 4.79987 4.05051 9.4789C4.05051 11.7024 4.91426 13.7264 6.31633 15.2395L1 20.5584L1.4512 21L6.75772 15.6909C8.27097 17.0986 10.2984 17.9578 12.5253 17.9578C16.5217 17.9578 19.8736 15.1809 20.7646 11.4514L20.1564 11.3042C19.3319 14.7556 16.2318 17.3297 12.5253 17.3297C8.18777 17.3297 4.67827 13.8185 4.67827 9.4789C4.67827 5.1393 8.18777 1.62807 12.5253 1.62807C16.8627 1.62807 20.3722 5.1393 20.3722 9.4789H21C21 4.79987 17.202 1 12.5253 1ZM12.2114 4.7684V5.72031C11.6959 5.76533 11.2101 5.90647 10.8185 6.17174C10.3486 6.49011 10.0142 6.99508 10.0142 7.5947C10.0142 8.18787 10.3734 8.64349 10.8283 8.9686C11.2833 9.2937 11.8485 9.52797 12.3977 9.76349C12.947 9.99902 13.4804 10.2358 13.8494 10.4995C14.2184 10.7632 14.4085 11.0142 14.4085 11.3631C14.4085 11.7365 14.2209 12.0244 13.8789 12.2561C13.5368 12.4878 13.0424 12.629 12.5253 12.629C11.5482 12.629 10.642 11.7959 10.642 11.0491H10.0142C10.0142 12.1523 11.0251 13.0937 12.2114 13.2375V14.1894H12.8391V13.2375C13.3548 13.1925 13.8403 13.0416 14.232 12.7763C14.7019 12.4579 15.0363 11.9627 15.0363 11.3631C15.0363 10.7699 14.6771 10.3143 14.2222 9.98921C13.7672 9.6641 13.2021 9.42002 12.6528 9.18449C12.1035 8.94897 11.5701 8.722 11.2011 8.45829C10.8321 8.19458 10.642 7.94363 10.642 7.5947C10.642 7.22128 10.8296 6.92356 11.1717 6.69185C11.5137 6.46015 12.0081 6.31894 12.5253 6.31894C13.5023 6.31894 14.4085 7.1619 14.4085 7.90873H15.0363C15.0363 6.80549 14.0254 5.8654 12.8391 5.72031V4.7684H12.2114Z" fill="#3AA334" stroke="#3AA334"/>
</svg>
