<svg width="20" height="17" viewBox="0 0 20 17" fill="none" xmlns="http://www.w3.org/2000/svg">
<path d="M0.350701 8.15986L4.9488 9.83055L6.74126 15.4501C6.8192 15.8298 7.2868 15.9057 7.59854 15.6779L10.1703 13.6275C10.4041 13.3997 10.7938 13.3997 11.1055 13.6275L15.7036 16.893C16.0154 17.1208 16.483 16.9689 16.5609 16.5892L19.99 0.641807C20.0679 0.262107 19.6782 -0.11759 19.2886 0.0342903L0.350701 7.17265C-0.1169 7.32453 -0.1169 8.00798 0.350701 8.15986ZM6.50747 8.9952L15.5477 3.60347C15.7036 3.52753 15.8595 3.75535 15.7036 3.83129L8.29993 10.5899C8.06613 10.8178 7.83233 11.1215 7.83233 11.5012L7.59854 13.3238C7.59854 13.5516 7.20886 13.6275 7.13093 13.3238L6.19572 9.98242C5.96192 9.60273 6.1178 9.14708 6.50747 8.9952Z" fill="white"/>
</svg>
