<svg width="10" height="10" viewBox="0 0 10 10" fill="none" xmlns="http://www.w3.org/2000/svg">
<path d="M8.53658 1.45833C7.59582 0.520833 6.34146 0 5.01742 0C2.26481 0 0.0348427 2.22222 0.0348427 4.96528C0.0348427 5.83333 0.278746 6.70139 0.696864 7.43056L0 10L2.64808 9.30556C3.37979 9.6875 4.18118 9.89583 5.01742 9.89583C7.77003 9.89583 10 7.67361 10 4.93056C9.96516 3.64583 9.47735 2.39583 8.53658 1.45833ZM7.4216 6.73611C7.31707 7.01389 6.82927 7.29167 6.58536 7.32639C6.37631 7.36111 6.09756 7.36111 5.81882 7.29167C5.6446 7.22222 5.4007 7.15278 5.12195 7.01389C3.8676 6.49306 3.0662 5.24306 2.99652 5.13889C2.92683 5.06944 2.47387 4.47917 2.47387 3.85417C2.47387 3.22917 2.78746 2.95139 2.89199 2.8125C2.99652 2.67361 3.13589 2.67361 3.24042 2.67361C3.3101 2.67361 3.41463 2.67361 3.48432 2.67361C3.55401 2.67361 3.65854 2.63889 3.76307 2.88194C3.8676 3.125 4.1115 3.75 4.14634 3.78472C4.18118 3.85417 4.18118 3.92361 4.14634 3.99306C4.1115 4.0625 4.07665 4.13194 4.00697 4.20139C3.93728 4.27083 3.86759 4.375 3.83275 4.40972C3.76306 4.47917 3.69338 4.54861 3.76307 4.65278C3.83275 4.79167 4.07665 5.17361 4.45993 5.52083C4.94773 5.9375 5.33101 6.07639 5.47038 6.14583C5.60976 6.21528 5.67944 6.18056 5.74913 6.11111C5.81881 6.04167 6.06272 5.76389 6.1324 5.625C6.20209 5.48611 6.30662 5.52083 6.41115 5.55556C6.51568 5.59028 7.14286 5.90278 7.24739 5.97222C7.38676 6.04167 7.45644 6.07639 7.49129 6.11111C7.52613 6.21528 7.52613 6.45833 7.4216 6.73611Z" fill="#ACC516"/>
</svg>
